<svg width="163" height="39" viewBox="0 0 163 39" fill="none" xmlns="http://www.w3.org/2000/svg">
<path d="M3.7253 17.3557C4.13413 23.5809 9.31734 28.5037 15.6513 28.5037C21.9848 28.5037 27.1676 23.5818 27.5773 17.3574L24.2232 18.7602C23.2452 22.5789 19.7782 25.402 15.6513 25.402C11.5238 25.402 8.05638 22.578 7.07897 18.7583L3.7253 17.3557Z" fill="black"/>
<path d="M0 9.58312L13.349 4V7.10174L3.70806 11.134L13.349 15.1662V18.268L0 12.6849V9.58312Z" fill="black"/>
<path d="M31.3546 12.6849L18.0056 18.268V15.1662L27.6466 11.134L18.0056 7.10174V4L31.3546 9.58312V12.6849Z" fill="black"/>
<path d="M52.2859 28.6451C50.0259 28.6451 48.0295 28.1613 46.2968 27.1935C44.5642 26.2258 43.2081 24.8656 42.2288 23.1129C41.2495 21.3495 40.7598 19.2796 40.7598 16.9032C40.7598 14.5269 41.2602 12.4624 42.2611 10.7097C43.262 8.94623 44.6395 7.58064 46.3937 6.6129C48.1479 5.64516 50.155 5.16129 52.415 5.16129C53.5881 5.16129 54.6804 5.29032 55.692 5.54839C56.7037 5.7957 57.5808 6.10753 58.3234 6.48387L57.9198 10.0161C57.1019 9.63978 56.2409 9.32795 55.3369 9.08064C54.4329 8.82258 53.4482 8.69355 52.3827 8.69355C50.7254 8.69355 49.3371 9.05376 48.2178 9.77419C47.1094 10.4839 46.2699 11.4624 45.6995 12.7097C45.1399 13.9462 44.8601 15.3441 44.8601 16.9032C44.8601 18.4624 45.1345 19.8656 45.6834 21.1129C46.243 22.3495 47.0717 23.3279 48.1694 24.0484C49.2779 24.7581 50.6501 25.1129 52.2859 25.1129C53.3836 25.1129 54.3791 24.9946 55.2723 24.7581C56.1763 24.5215 57.0588 24.1989 57.9198 23.7903L58.3234 27.3387C57.4839 27.7258 56.5584 28.0376 55.5468 28.2742C54.5351 28.5215 53.4482 28.6451 52.2859 28.6451Z" fill="black"/>
<path d="M69.6746 28.5161C67.9527 28.5161 66.4837 28.1398 65.2676 27.3871C64.0623 26.6344 63.1367 25.629 62.491 24.371C61.8561 23.1129 61.5386 21.7258 61.5386 20.2097C61.5386 18.6935 61.8561 17.3011 62.491 16.0323C63.1367 14.7634 64.0623 13.7527 65.2676 13C66.4837 12.2366 67.9527 11.8548 69.6746 11.8548C71.3858 11.8548 72.8494 12.2366 74.0655 13C75.2816 13.7527 76.2072 14.7634 76.8421 16.0323C77.4878 17.3011 77.8107 18.6935 77.8107 20.2097C77.8107 21.7258 77.4878 23.1129 76.8421 24.371C76.2072 25.629 75.2816 26.6344 74.0655 27.3871C72.8494 28.1398 71.3858 28.5161 69.6746 28.5161ZM69.6746 25.4839C71.0952 25.4839 72.1876 25.0054 72.9517 24.0484C73.7265 23.0806 74.114 21.8011 74.114 20.2097C74.114 18.5968 73.7265 17.3064 72.9517 16.3387C72.1876 15.371 71.0952 14.8871 69.6746 14.8871C68.2541 14.8871 67.1563 15.371 66.3815 16.3387C65.6066 17.3064 65.2192 18.5968 65.2192 20.2097C65.2192 21.8011 65.6066 23.0806 66.3815 24.0484C67.1563 25.0054 68.2541 25.4839 69.6746 25.4839Z" fill="black"/>
<path d="M88.6911 28.5161C87.1629 28.5161 85.8445 28.1398 84.736 27.3871C83.6383 26.6344 82.7935 25.629 82.2016 24.371C81.6097 23.1129 81.3137 21.7312 81.3137 20.2258C81.3137 18.7312 81.5989 17.3548 82.1693 16.0968C82.7397 14.828 83.5738 13.8118 84.6715 13.0484C85.78 12.2849 87.1198 11.9032 88.6911 11.9032C89.8318 11.9032 90.8381 12.1129 91.7098 12.5323C92.5923 12.9409 93.3456 13.5323 93.9698 14.3064L93.1304 15V4H96.7303V28.1935H93.3887L93.0658 25.2258L94.0828 25.9516C93.4264 26.7688 92.6623 27.4032 91.7905 27.8548C90.9188 28.2957 89.8857 28.5161 88.6911 28.5161ZM89.2561 25.4839C90.0848 25.4839 90.8058 25.2796 91.4192 24.871C92.0327 24.4624 92.5116 23.8656 92.856 23.0806C93.2004 22.2957 93.3725 21.3441 93.3725 20.2258C93.3725 19.129 93.2004 18.1882 92.856 17.4032C92.5116 16.6075 92.0327 16 91.4192 15.5806C90.8058 15.1505 90.0848 14.9355 89.2561 14.9355C88.3628 14.9355 87.5987 15.1613 86.9638 15.6129C86.3288 16.0645 85.8392 16.6882 85.4948 17.4839C85.1611 18.2796 84.9943 19.1935 84.9943 20.2258C84.9943 21.2258 85.1611 22.1236 85.4948 22.9193C85.8392 23.715 86.3288 24.3441 86.9638 24.8064C87.5987 25.2581 88.3628 25.4839 89.2561 25.4839Z" fill="black"/>
<path d="M102.136 28.1935V12.1774H105.736V28.1935H102.136ZM102.136 9.33871V5.6129H105.736V9.33871H102.136Z" fill="black"/>
<path d="M115.743 28.5161C114.56 28.5161 113.526 28.3925 112.644 28.1451C111.762 27.8871 110.981 27.5914 110.303 27.2581L110.658 24.0484C111.304 24.4677 112.041 24.8441 112.87 25.1774C113.699 25.5 114.613 25.6613 115.614 25.6613C116.497 25.6613 117.169 25.5215 117.632 25.2419C118.095 24.9516 118.326 24.5107 118.326 23.9193C118.326 23.457 118.192 23.0806 117.923 22.7903C117.654 22.4892 117.288 22.2365 116.825 22.0322C116.373 21.8172 115.862 21.6129 115.291 21.4193C114.398 21.1183 113.591 20.7796 112.87 20.4032C112.149 20.0161 111.573 19.5215 111.143 18.9193C110.723 18.3172 110.513 17.5376 110.513 16.5806C110.513 15.6989 110.739 14.9032 111.191 14.1935C111.643 13.4731 112.31 12.9032 113.193 12.4839C114.075 12.0645 115.173 11.8548 116.486 11.8548C117.519 11.8548 118.412 11.9677 119.166 12.1935C119.93 12.4193 120.619 12.6989 121.232 13.0323L120.877 16.1774C120.242 15.715 119.58 15.3333 118.891 15.0323C118.203 14.7204 117.422 14.5645 116.551 14.5645C115.776 14.5645 115.162 14.715 114.71 15.0161C114.269 15.3172 114.048 15.7634 114.048 16.3548C114.048 17.0215 114.328 17.5107 114.888 17.8226C115.447 18.1344 116.319 18.5054 117.503 18.9355C118.127 19.1613 118.708 19.4086 119.246 19.6774C119.785 19.9462 120.258 20.2634 120.667 20.629C121.076 20.9946 121.393 21.4301 121.619 21.9355C121.845 22.4408 121.958 23.043 121.958 23.7419C121.958 24.6451 121.743 25.457 121.313 26.1774C120.882 26.8978 120.21 27.4677 119.295 27.8871C118.38 28.3064 117.196 28.5161 115.743 28.5161Z" fill="black"/>
<path d="M126.363 28.1935V12.1774H129.963V28.1935H126.363ZM126.363 9.33871V5.6129H129.963V9.33871H126.363Z" fill="black"/>
<path d="M140.762 28.5161C139.75 28.5161 138.932 28.3172 138.308 27.9193C137.684 27.5215 137.226 27.0161 136.936 26.4032C136.645 25.7796 136.5 25.129 136.5 24.4516V15.0968H134.046L134.369 12.1774H136.5V8.5L140.1 8.12903V12.1774H143.877V15.0968H140.1V22.7581C140.1 23.6505 140.153 24.2957 140.261 24.6935C140.369 25.0806 140.616 25.3279 141.004 25.4355C141.391 25.5322 142.015 25.5806 142.876 25.5806H143.845L143.538 28.5161H140.762Z" fill="black"/>
<path d="M149.327 36L152.927 27.2581L146.26 12.1774H150.279L154.703 23.0645L158.997 12.1774H163L153.056 36H149.327Z" fill="black"/>
</svg>
